# xmcd
#
# Track frame offsets:
#	150
#	13461
#	28340
#	41651
#	59922
#	69841
#	90749
#	119465
#	130154
#	146268
#	155201
#	169228
#
# Disc length: 2463 seconds
#
# Revision: 1
# Processed by: cddbd v1.5.2PL0 Copyright (c) Steve Scherf et al.
# Submitted via: audiograbber 1.83.01
#
DISCID=b4099d0c
DTITLE=Ray Charles - Crying Time
DYEAR=1900
DGENRE=Jazz
TTITLE0=Crying Time
TTITLE1=No Use Crying
TTITLE2=Let's Go Get Stoned
TTITLE3=Going Down Slow
TTITLE4=Peace Of Mind
TTITLE5=Tears
TTITLE6=Drifting Blues
TTITLE7=We Don't See Eye To Eye
TTITLE8=You're In For A Big Surprise
TTITLE9=You're Just About To Lose Your Clown
TTITLE10=Don't Think I Ought To Know
TTITLE11=You've Got A Problem
EXTD=
EXTT0=
EXTT1=
EXTT2=
EXTT3=
EXTT4=
EXTT5=
EXTT6=
EXTT7=
EXTT8=
EXTT9=
EXTT10=
EXTT11=
PLAYORDER=
